<?xml version="1.0" encoding="utf-8"?>
<!-- Generator: Adobe Illustrator 27.4.1, SVG Export Plug-In . SVG Version: 6.00 Build 0)  -->
<svg version="1.1" xmlns="http://www.w3.org/2000/svg" xmlns:xlink="http://www.w3.org/1999/xlink" x="0px" y="0px"
	 viewBox="0 0 2650 2650" style="enable-background:new 0 0 2650 2650;" xml:space="preserve">
<style type="text/css">
	.st0{opacity:0.3882;fill:url(#SVGID_1_);}
	.st1{fill:#AA2373;}
	.st2{fill:url(#SVGID_00000054247033296791895250000013715730274879042466_);stroke:#023952;stroke-width:16;stroke-miterlimit:10;}
	.st3{fill:url(#SVGID_00000008106683977259573060000017620987284316095379_);stroke:#023952;stroke-width:16;stroke-miterlimit:10;}
	.st4{fill:url(#SVGID_00000136370794986404023790000004517690803386502027_);stroke:#023952;stroke-width:16;stroke-miterlimit:10;}
	.st5{fill:url(#SVGID_00000040538777262466537270000011642335708391853477_);stroke:#023952;stroke-width:16;stroke-miterlimit:10;}
	.st6{fill:url(#SVGID_00000009568111691588632850000003528724267989960080_);stroke:#023952;stroke-width:16;stroke-miterlimit:10;}
	.st7{fill:url(#SVGID_00000147902120158034037810000018341222934421501373_);stroke:#023952;stroke-width:16;stroke-miterlimit:10;}
	.st8{fill:url(#SVGID_00000053510801025155439710000016086774709209020079_);stroke:#023952;stroke-width:16;stroke-miterlimit:10;}
	.st9{opacity:0.6118;fill:url(#SVGID_00000011000248338093867510000011030632129558330800_);}
	.st10{fill:none;stroke:#023952;stroke-width:16;stroke-miterlimit:10;}
	.st11{fill:#555C8D;}
	.st12{fill:#023952;}
</style>
<g id="Layer_10">
</g>
<g id="Layer_12">
</g>
<g id="Layer_8">
	<g>
		<g>
			<linearGradient id="SVGID_1_" gradientUnits="userSpaceOnUse" x1="1086.9163" y1="2159.9478" x2="2271.489" y2="2159.9478">
				<stop  offset="0" style="stop-color:#000000"/>
				<stop  offset="1" style="stop-color:#FFFFFF"/>
			</linearGradient>
			<ellipse class="st0" cx="1556.7" cy="2159.9" rx="469.8" ry="77.5"/>
		</g>
	</g>
</g>
<g id="Layer_5">
	<circle class="st1" cx="1252.4" cy="1136.7" r="580"/>
</g>
<g id="Layer_2">
	
		<linearGradient id="SVGID_00000038392486539157715160000007967246714646947996_" gradientUnits="userSpaceOnUse" x1="1568.7009" y1="1788.6688" x2="997.5463" y2="435.3598">
		<stop  offset="0" style="stop-color:#565C8D"/>
		<stop  offset="0.3949" style="stop-color:#575D8D"/>
		<stop  offset="0.5372" style="stop-color:#5C6190"/>
		<stop  offset="0.6386" style="stop-color:#656895"/>
		<stop  offset="0.7207" style="stop-color:#71729C"/>
		<stop  offset="0.7909" style="stop-color:#8180A6"/>
		<stop  offset="0.8531" style="stop-color:#9594B4"/>
		<stop  offset="0.9094" style="stop-color:#B1AFC7"/>
		<stop  offset="0.9594" style="stop-color:#D3D2DF"/>
		<stop  offset="1" style="stop-color:#FFFFFF"/>
	</linearGradient>
	
		<path style="fill:url(#SVGID_00000038392486539157715160000007967246714646947996_);stroke:#023952;stroke-width:16;stroke-miterlimit:10;" d="
		M1960.9,1423.1c-128.9,331.6-364.3,442.2-584.5,462.4l0.8,156.3c204.6,5.3,362.8,41,362.8,84.3c0,46.9-185.8,85-415,85
		s-415-38.1-415-85c0-43.6,160.5-79.6,367.2-84.4l-0.8-152.9c-176.6-3.8-329.9-56.1-390.4-82.2c-19.4-8.4,25.3-68.6,27.8-68
		c145.9,37.6,723.9,247.5,967.5-353.6c227.9-562.6-306.9-846.8-424.2-884.7c-15.1-4.9,7.8-36.5,16.1-60.6
		C1484.1,408.1,2251.1,676.6,1960.9,1423.1z"/>
	
		<linearGradient id="SVGID_00000158028520738120983890000009951158178078546363_" gradientUnits="userSpaceOnUse" x1="1276.7538" y1="2082.4578" x2="1277.3672" y2="2082.4578">
		<stop  offset="0" style="stop-color:#565C8D"/>
		<stop  offset="1" style="stop-color:#815878"/>
	</linearGradient>
	
		<line style="fill:url(#SVGID_00000158028520738120983890000009951158178078546363_);stroke:#023952;stroke-width:16;stroke-miterlimit:10;" x1="1276.8" y1="2122.3" x2="1277.4" y2="2042.6"/>
	
		<linearGradient id="SVGID_00000129893249046305576500000012986028331281701275_" gradientUnits="userSpaceOnUse" x1="1376.6292" y1="2082.4578" x2="1377.2426" y2="2082.4578">
		<stop  offset="0" style="stop-color:#565C8D"/>
		<stop  offset="1" style="stop-color:#815878"/>
	</linearGradient>
	
		<line style="fill:url(#SVGID_00000129893249046305576500000012986028331281701275_);stroke:#023952;stroke-width:16;stroke-miterlimit:10;" x1="1376.6" y1="2122.3" x2="1377.2" y2="2042.6"/>
	
		<linearGradient id="SVGID_00000007388903326657529770000017877550584179824016_" gradientUnits="userSpaceOnUse" x1="1276.3732" y1="1888.1554" x2="1276.3832" y2="1888.1554">
		<stop  offset="0" style="stop-color:#565C8D"/>
		<stop  offset="1" style="stop-color:#815878"/>
	</linearGradient>
	
		<line style="fill:url(#SVGID_00000007388903326657529770000017877550584179824016_);stroke:#023952;stroke-width:16;stroke-miterlimit:10;" x1="1276.4" y1="1888.8" x2="1276.4" y2="1887.5"/>
	
		<linearGradient id="SVGID_00000046330131683220617230000016988970599402274975_" gradientUnits="userSpaceOnUse" x1="1277.1632" y1="2042.0955" x2="1277.1632" y2="2042.0955">
		<stop  offset="0" style="stop-color:#565C8D"/>
		<stop  offset="1" style="stop-color:#815878"/>
	</linearGradient>
	
		<line style="fill:url(#SVGID_00000046330131683220617230000016988970599402274975_);stroke:#023952;stroke-width:16;stroke-miterlimit:10;" x1="1277.2" y1="2042.5" x2="1277.2" y2="2041.7"/>
	
		<linearGradient id="SVGID_00000038415591878351051260000008296491711128373139_" gradientUnits="userSpaceOnUse" x1="1376.3732" y1="1883.5105" x2="1376.3932" y2="1883.5105">
		<stop  offset="0" style="stop-color:#565C8D"/>
		<stop  offset="1" style="stop-color:#815878"/>
	</linearGradient>
	
		<line style="fill:url(#SVGID_00000038415591878351051260000008296491711128373139_);stroke:#023952;stroke-width:16;stroke-miterlimit:10;" x1="1376.4" y1="1885.5" x2="1376.4" y2="1881.6"/>
	
		<linearGradient id="SVGID_00000044152311187137827940000014860647141555935129_" gradientUnits="userSpaceOnUse" x1="1377.1632" y1="2042.1504" x2="1377.1632" y2="2042.1504">
		<stop  offset="0" style="stop-color:#565C8D"/>
		<stop  offset="1" style="stop-color:#815878"/>
	</linearGradient>
	
		<line style="fill:url(#SVGID_00000044152311187137827940000014860647141555935129_);stroke:#023952;stroke-width:16;stroke-miterlimit:10;" x1="1377.2" y1="2042.5" x2="1377.2" y2="2041.8"/>
</g>
<g id="Layer_9">
	
		<linearGradient id="SVGID_00000090283915026651684690000013506940395240317371_" gradientUnits="userSpaceOnUse" x1="325.2643" y1="-312.1974" x2="377.3082" y2="-92.1891" gradientTransform="matrix(2.1489 0.6752 1.3269 6.3645 737.5793 2083.0449)">
		<stop  offset="0" style="stop-color:#FFFFFF"/>
		<stop  offset="1" style="stop-color:#FFFFFF;stop-opacity:0"/>
	</linearGradient>
	<path style="opacity:0.6118;fill:url(#SVGID_00000090283915026651684690000013506940395240317371_);" d="M707.8,1348
		c-137.4-385.7,112.6-679.8,371.3-766.5c226.8-76.1,631.1,16,745.8,431.2c82.7,299.4-178.1,631.4-407.3,689.7
		C1315.2,1728.5,869.1,1800.8,707.8,1348z"/>
</g>
<g id="Layer_3">
	<circle class="st10" cx="1252.4" cy="1136.7" r="585"/>
</g>
<g id="Layer_6">
	<g>
		<g>
			<g>
				<path class="st11" d="M867.7,1025.5c-6.7-7.7-8.5-18.1-4.8-27.6c3.7-9.6,12-15.9,22.2-17.1l282-31.6l6.9,49.5l-236.5,29.7
					l155.7,179.1l-38.6,33L867.7,1025.5z"/>
				<path class="st12" d="M1162.9,954.5l5.6,40l-222.6,28l-18,2.3l11.9,13.7l146.6,168.6l-31.2,26.7l-183.8-211.3
					c-5.5-6.4-7-14.8-3.9-22.7c3.1-7.9,9.9-13.1,18.3-14L1162.9,954.5 M1171.2,943.9L884.5,976c-25.6,2.9-37.4,33.3-20.5,52.7
					l190.1,218.6l46-39.3l-153-175.9l232.4-29.2L1171.2,943.9L1171.2,943.9z"/>
			</g>
			<g>
				<path class="st11" d="M1333.3,1299.6l235.6-29l-156-180.2l38.2-32.1l188.5,212.1c6.8,7.7,8.7,18,5.1,27.6
					c-3.6,9.6-11.9,16.1-22,17.3l-282.8,34.8L1333.3,1299.6z"/>
				<path class="st12" d="M1450.7,1064.9l185.4,208.5c5.6,6.3,7.2,14.8,4.2,22.7c-3,7.9-9.7,13.2-18.1,14.2l-278,34.2l-5.4-40.7
					l221.7-27.3l18-2.2l-11.9-13.7l-146.8-169.7L1450.7,1064.9 M1451.6,1051.5l-45.6,38.3l153.3,177.1l-231.4,28.5l7.9,59.9
					l287.5-35.4c25.5-3.1,37.1-33.7,20-52.9L1451.6,1051.5L1451.6,1051.5z"/>
			</g>
			<g>
				
					<rect x="980.4" y="1131" transform="matrix(0.6568 -0.7541 0.7541 0.6568 -439.8823 1339.7435)" class="st11" width="542.9" height="44.2"/>
				<path class="st12" d="M1413.9,940.7l26,22.7l-350.2,402.1l-26-22.7L1413.9,940.7 M1412.9,927.1L1050,1343.7l40.6,35.4
					l362.9-416.7L1412.9,927.1L1412.9,927.1z"/>
			</g>
		</g>
	</g>
</g>
</svg>
